<mxfile host="Electron" modified="2024-01-30T10:28:27.000Z" agent="Mozilla/5.0 (Windows NT 10.0; Win64; x64) AppleWebKit/537.36 (KHTML, like Gecko) draw.io/23.0.2 Chrome/120.0.6099.109 Electron/28.1.0 Safari/537.36" etag="G-vD1FgmYPiMeNyl2y7T" version="23.0.2" type="device">
  <diagram name="Page-1" id="soLmd_Lybwzb2wx2_WRd">
    <mxGraphModel dx="1954" dy="1129" grid="0" gridSize="10" guides="1" tooltips="1" connect="1" arrows="1" fold="1" page="0" pageScale="1" pageWidth="850" pageHeight="1100" math="0" shadow="0">
      <root>
        <mxCell id="0" />
        <mxCell id="1" parent="0" />
        <mxCell id="1MqZQzSgK6-plofl2lTI-7" style="edgeStyle=none;curved=1;rounded=0;sketch=1;hachureGap=4;jiggle=2;curveFitting=1;orthogonalLoop=1;jettySize=auto;html=1;fontFamily=Architects Daughter;fontSource=https%3A%2F%2Ffonts.googleapis.com%2Fcss%3Ffamily%3DArchitects%2BDaughter;fontSize=16;endArrow=open;startSize=14;endSize=14;sourcePerimeterSpacing=8;targetPerimeterSpacing=8;" edge="1" parent="1" source="1MqZQzSgK6-plofl2lTI-2">
          <mxGeometry relative="1" as="geometry">
            <mxPoint x="238.6666259765625" y="205.66668701171875" as="targetPoint" />
          </mxGeometry>
        </mxCell>
        <mxCell id="1MqZQzSgK6-plofl2lTI-2" value="Proprietary&lt;br&gt;Articles" style="rounded=0;whiteSpace=wrap;html=1;sketch=1;hachureGap=4;jiggle=2;curveFitting=1;fontFamily=Architects Daughter;fontSource=https%3A%2F%2Ffonts.googleapis.com%2Fcss%3Ffamily%3DArchitects%2BDaughter;fontSize=20;" vertex="1" parent="1">
          <mxGeometry x="-55" y="86" width="160" height="77" as="geometry" />
        </mxCell>
        <mxCell id="1MqZQzSgK6-plofl2lTI-8" style="edgeStyle=none;curved=1;rounded=0;sketch=1;hachureGap=4;jiggle=2;curveFitting=1;orthogonalLoop=1;jettySize=auto;html=1;fontFamily=Architects Daughter;fontSource=https%3A%2F%2Ffonts.googleapis.com%2Fcss%3Ffamily%3DArchitects%2BDaughter;fontSize=16;endArrow=open;startSize=14;endSize=14;sourcePerimeterSpacing=8;targetPerimeterSpacing=8;exitX=0.948;exitY=0.437;exitDx=0;exitDy=0;exitPerimeter=0;" edge="1" parent="1" source="1MqZQzSgK6-plofl2lTI-4">
          <mxGeometry relative="1" as="geometry">
            <mxPoint x="239.33331298828125" y="221" as="targetPoint" />
          </mxGeometry>
        </mxCell>
        <mxCell id="1MqZQzSgK6-plofl2lTI-14" style="edgeStyle=none;curved=1;rounded=0;sketch=1;hachureGap=4;jiggle=2;curveFitting=1;orthogonalLoop=1;jettySize=auto;html=1;exitX=0.96;exitY=0.7;exitDx=0;exitDy=0;exitPerimeter=0;fontFamily=Architects Daughter;fontSource=https%3A%2F%2Ffonts.googleapis.com%2Fcss%3Ffamily%3DArchitects%2BDaughter;fontSize=16;endArrow=open;startSize=14;endSize=14;sourcePerimeterSpacing=8;targetPerimeterSpacing=8;" edge="1" parent="1" source="1MqZQzSgK6-plofl2lTI-4">
          <mxGeometry relative="1" as="geometry">
            <mxPoint x="325.33331298828125" y="431" as="targetPoint" />
          </mxGeometry>
        </mxCell>
        <mxCell id="1MqZQzSgK6-plofl2lTI-4" value="Idea for a &lt;br&gt;new article" style="ellipse;shape=cloud;whiteSpace=wrap;html=1;sketch=1;hachureGap=4;jiggle=2;curveFitting=1;fontFamily=Architects Daughter;fontSource=https%3A%2F%2Ffonts.googleapis.com%2Fcss%3Ffamily%3DArchitects%2BDaughter;fontSize=20;" vertex="1" parent="1">
          <mxGeometry x="-77" y="249" width="217" height="113" as="geometry" />
        </mxCell>
        <mxCell id="1MqZQzSgK6-plofl2lTI-9" style="edgeStyle=none;curved=1;rounded=0;sketch=1;hachureGap=4;jiggle=2;curveFitting=1;orthogonalLoop=1;jettySize=auto;html=1;exitX=1;exitY=0.25;exitDx=0;exitDy=0;fontFamily=Architects Daughter;fontSource=https%3A%2F%2Ffonts.googleapis.com%2Fcss%3Ffamily%3DArchitects%2BDaughter;fontSize=16;endArrow=open;startSize=14;endSize=14;sourcePerimeterSpacing=8;targetPerimeterSpacing=8;" edge="1" parent="1" source="1MqZQzSgK6-plofl2lTI-5">
          <mxGeometry relative="1" as="geometry">
            <mxPoint x="522.6666259765625" y="166" as="targetPoint" />
          </mxGeometry>
        </mxCell>
        <mxCell id="1MqZQzSgK6-plofl2lTI-10" value="Store" style="edgeLabel;html=1;align=center;verticalAlign=middle;resizable=0;points=[];fontSize=20;fontFamily=Architects Daughter;" vertex="1" connectable="0" parent="1MqZQzSgK6-plofl2lTI-9">
          <mxGeometry x="-0.2616" y="-1" relative="1" as="geometry">
            <mxPoint x="15" as="offset" />
          </mxGeometry>
        </mxCell>
        <mxCell id="1MqZQzSgK6-plofl2lTI-5" value="Embedding&lt;br&gt;Model" style="rounded=0;whiteSpace=wrap;html=1;sketch=1;hachureGap=4;jiggle=2;curveFitting=1;fontFamily=Architects Daughter;fontSource=https%3A%2F%2Ffonts.googleapis.com%2Fcss%3Ffamily%3DArchitects%2BDaughter;fontSize=20;" vertex="1" parent="1">
          <mxGeometry x="260" y="118" width="120" height="190" as="geometry" />
        </mxCell>
        <mxCell id="1MqZQzSgK6-plofl2lTI-13" style="edgeStyle=none;curved=1;rounded=0;sketch=1;hachureGap=4;jiggle=2;curveFitting=1;orthogonalLoop=1;jettySize=auto;html=1;fontFamily=Architects Daughter;fontSource=https%3A%2F%2Ffonts.googleapis.com%2Fcss%3Ffamily%3DArchitects%2BDaughter;fontSize=16;endArrow=open;startSize=14;endSize=14;sourcePerimeterSpacing=8;targetPerimeterSpacing=8;" edge="1" parent="1">
          <mxGeometry relative="1" as="geometry">
            <mxPoint x="351.33331298828125" y="429.66668701171875" as="targetPoint" />
            <mxPoint x="535" y="300" as="sourcePoint" />
          </mxGeometry>
        </mxCell>
        <mxCell id="1MqZQzSgK6-plofl2lTI-6" value="Vector&lt;br&gt;Database" style="shape=cylinder3;whiteSpace=wrap;html=1;boundedLbl=1;backgroundOutline=1;size=15;sketch=1;hachureGap=4;jiggle=2;curveFitting=1;fontFamily=Architects Daughter;fontSource=https%3A%2F%2Ffonts.googleapis.com%2Fcss%3Ffamily%3DArchitects%2BDaughter;fontSize=20;" vertex="1" parent="1">
          <mxGeometry x="535" y="125" width="116" height="172" as="geometry" />
        </mxCell>
        <mxCell id="1MqZQzSgK6-plofl2lTI-11" style="edgeStyle=none;curved=1;rounded=0;sketch=1;hachureGap=4;jiggle=2;curveFitting=1;orthogonalLoop=1;jettySize=auto;html=1;exitX=1;exitY=0.75;exitDx=0;exitDy=0;entryX=-0.072;entryY=0.791;entryDx=0;entryDy=0;entryPerimeter=0;fontFamily=Architects Daughter;fontSource=https%3A%2F%2Ffonts.googleapis.com%2Fcss%3Ffamily%3DArchitects%2BDaughter;fontSize=16;endArrow=open;startSize=14;endSize=14;sourcePerimeterSpacing=8;targetPerimeterSpacing=8;" edge="1" parent="1" source="1MqZQzSgK6-plofl2lTI-5" target="1MqZQzSgK6-plofl2lTI-6">
          <mxGeometry relative="1" as="geometry" />
        </mxCell>
        <mxCell id="1MqZQzSgK6-plofl2lTI-12" value="Search" style="edgeLabel;html=1;align=center;verticalAlign=middle;resizable=0;points=[];fontSize=20;fontFamily=Architects Daughter;" vertex="1" connectable="0" parent="1MqZQzSgK6-plofl2lTI-11">
          <mxGeometry x="-0.2136" y="2" relative="1" as="geometry">
            <mxPoint x="19" y="1" as="offset" />
          </mxGeometry>
        </mxCell>
        <mxCell id="1MqZQzSgK6-plofl2lTI-17" style="edgeStyle=none;curved=1;rounded=0;sketch=1;hachureGap=4;jiggle=2;curveFitting=1;orthogonalLoop=1;jettySize=auto;html=1;fontFamily=Architects Daughter;fontSource=https%3A%2F%2Ffonts.googleapis.com%2Fcss%3Ffamily%3DArchitects%2BDaughter;fontSize=16;endArrow=open;startSize=14;endSize=14;sourcePerimeterSpacing=8;targetPerimeterSpacing=8;" edge="1" parent="1" source="1MqZQzSgK6-plofl2lTI-16" target="1MqZQzSgK6-plofl2lTI-18">
          <mxGeometry relative="1" as="geometry">
            <mxPoint x="329.5" y="647.666748046875" as="targetPoint" />
          </mxGeometry>
        </mxCell>
        <mxCell id="1MqZQzSgK6-plofl2lTI-16" value="Prompt:&lt;br&gt;relevant documents + new article input" style="shape=process;whiteSpace=wrap;html=1;backgroundOutline=1;sketch=1;hachureGap=4;jiggle=2;curveFitting=1;fontFamily=Architects Daughter;fontSource=https%3A%2F%2Ffonts.googleapis.com%2Fcss%3Ffamily%3DArchitects%2BDaughter;fontSize=20;" vertex="1" parent="1">
          <mxGeometry x="204" y="461" width="251" height="98" as="geometry" />
        </mxCell>
        <mxCell id="1MqZQzSgK6-plofl2lTI-20" style="edgeStyle=none;curved=1;rounded=0;sketch=1;hachureGap=4;jiggle=2;curveFitting=1;orthogonalLoop=1;jettySize=auto;html=1;fontFamily=Architects Daughter;fontSource=https%3A%2F%2Ffonts.googleapis.com%2Fcss%3Ffamily%3DArchitects%2BDaughter;fontSize=16;endArrow=open;startSize=14;endSize=14;sourcePerimeterSpacing=8;targetPerimeterSpacing=8;" edge="1" parent="1" source="1MqZQzSgK6-plofl2lTI-18" target="1MqZQzSgK6-plofl2lTI-19">
          <mxGeometry relative="1" as="geometry" />
        </mxCell>
        <mxCell id="1MqZQzSgK6-plofl2lTI-18" value="LLM" style="rounded=1;whiteSpace=wrap;html=1;sketch=1;hachureGap=4;jiggle=2;curveFitting=1;fontFamily=Architects Daughter;fontSource=https%3A%2F%2Ffonts.googleapis.com%2Fcss%3Ffamily%3DArchitects%2BDaughter;fontSize=20;" vertex="1" parent="1">
          <mxGeometry x="269.5" y="612.996748046875" width="120" height="60" as="geometry" />
        </mxCell>
        <mxCell id="1MqZQzSgK6-plofl2lTI-19" value="New Article based on proprietary content" style="rounded=1;whiteSpace=wrap;html=1;sketch=1;hachureGap=4;jiggle=2;curveFitting=1;fontFamily=Architects Daughter;fontSource=https%3A%2F%2Ffonts.googleapis.com%2Fcss%3Ffamily%3DArchitects%2BDaughter;fontSize=20;" vertex="1" parent="1">
          <mxGeometry x="181.5" y="725" width="296" height="60" as="geometry" />
        </mxCell>
      </root>
    </mxGraphModel>
  </diagram>
</mxfile>
